<svg id="Flat" height="512" viewBox="0 0 512 512" width="512" xmlns="http://www.w3.org/2000/svg"><path d="m488 128h-272l-48-48h272z" fill="#815038"/><path d="m488 128-64 224h-272l64-224z" fill="#af7d4d"/><path d="m424 352-48-48 64-224 48 48z" fill="#d3393b"/><path d="m152 352-48-48 64-224 48 48z" fill="#815038"/><circle cx="208" cy="272" fill="#f0c033" r="152"/><circle cx="208" cy="272" fill="#f0de9c" r="128"/><path d="m144 248a24 24 0 0 1 24-24v-32a56.06353 56.06353 0 0 0 -56 56z" fill="#349b66"/><path d="m256 240a24 24 0 0 1 24 24h32a56.06353 56.06353 0 0 0 -56-56z" fill="#349b66"/><path d="m200 368a24 24 0 0 1 24-24v-32a56.06353 56.06353 0 0 0 -56 56z" fill="#349b66"/><g fill="#e64042"><circle cx="272" cy="312" r="24"/><circle cx="216" cy="192" r="16"/><circle cx="208" cy="264" r="16"/><circle cx="136" cy="296" r="16"/><path d="m24 352h272v80h-272z"/></g><path d="m296 352h128v80h-128z" fill="#d3393b"/></svg>